<?xml version="1.0" standalone="no"?>
<!DOCTYPE svg PUBLIC "-//W3C//DTD SVG 20010904//EN"
 "http://www.w3.org/TR/2001/REC-SVG-20010904/DTD/svg10.dtd">
<svg version="1.0" xmlns="http://www.w3.org/2000/svg"
 width="540.000000pt" height="540.000000pt" viewBox="0 0 540.000000 540.000000"
 preserveAspectRatio="xMidYMid meet">
<metadata>
Created by potrace 1.14, written by Peter Selinger 2001-2017
</metadata>
<g transform="translate(0.000000,540.000000) scale(0.100000,-0.100000)"
fill="#000000" stroke="none">
<path d="M2370 5379 c-169 -23 -186 -26 -290 -50 -93 -22 -339 -97 -355 -108
-5 -4 -32 -16 -60 -26 -123 -44 -371 -179 -505 -274 -25 -17 -56 -39 -70 -48
-96 -64 -349 -300 -459 -428 -87 -101 -291 -398 -291 -423 0 -5 -7 -15 -15
-22 -9 -7 -13 -15 -11 -18 3 -3 -3 -17 -13 -31 -28 -40 -125 -265 -164 -382
-42 -123 -82 -270 -97 -354 -5 -33 -12 -69 -14 -80 -35 -177 -33 -708 2 -895
74 -392 208 -729 408 -1030 342 -514 819 -882 1402 -1080 83 -28 308 -87 361
-95 15 -2 71 -11 126 -19 76 -11 171 -14 400 -12 165 2 314 6 330 8 17 3 44 8
60 11 17 4 48 9 70 12 102 14 321 76 468 132 128 48 322 139 345 160 7 7 18
13 23 13 27 0 315 199 432 298 74 63 287 283 350 362 178 223 333 497 431 762
39 106 102 328 111 392 3 23 8 48 11 57 5 17 6 26 19 124 3 28 9 61 12 75 9
43 11 452 2 530 -38 357 -116 632 -264 935 -143 292 -286 494 -504 714 -145
146 -172 170 -266 241 -33 25 -62 48 -65 51 -3 3 -50 35 -105 71 -111 74 -309
180 -425 228 -41 17 -84 35 -95 40 -123 55 -436 135 -610 156 -28 3 -61 8 -75
10 -14 3 -126 6 -250 8 -177 3 -254 -1 -360 -15z"/>
</g>
</svg>
